<svg xmlns="http://www.w3.org/2000/svg" viewBox="0 0 64 64"><rect width="64" height="64" rx="17.9" fill="#2D7CF6"/><g transform="translate(17.28 18.92) scale(1.6356)" fill="#fff"><path d="M17.7654 15.9135C17.7741 15.8789 16.84 14.9059 15.6249 13.6822C13.1124 11.1524 13.0476 11.0919 12.9654 11.1438C12.7924 11.2389 10.6433 13.3795 10.6433 13.453C10.6433 13.5395 12.7622 15.7146 13.0216 15.8962L13.173 16L15.4649 15.9914C17.4627 15.9784 17.7568 15.9697 17.7654 15.9135ZM14.0162 9.88973C14.8638 9.25838 15.7027 8.30703 16.0833 7.54595C16.6497 6.40865 16.7276 5.01622 16.3038 3.74054C15.6378 1.7427 13.9081 0.307027 11.8541 0.0432434C11.6033 0.0129732 9.73947 0 5.89082 0.00864938C0.775144 0.0216224 0.290821 0.0259464 0.251903 0.0908113C0.217308 0.147027 0.23028 0.19027 0.299469 0.281081C0.42055 0.436757 2.09406 2.20973 2.77731 2.90595L3.06271 3.2H7.11461C11.6335 3.2 11.5081 3.19135 12.0919 3.49838C12.8097 3.87027 13.2768 4.64 13.2811 5.45297C13.2811 5.96757 13.0216 6.52541 12.6022 6.91892C12.2649 7.23459 11.9362 7.40757 11.387 7.55027C10.92 7.67567 10.8162 7.71892 10.8162 7.79243C10.8162 7.84865 11.1838 8.24216 12.4335 9.50054L13.2984 10.3784L13.4497 10.2876C13.5362 10.2357 13.787 10.0584 14.0162 9.88973Z"/><path d="M6.7427 15.9395C6.79892 15.9092 8.03135 14.7114 9.48 13.28C11.2876 11.4897 12.1135 10.6465 12.1135 10.5816C12.1135 10.4735 12.3297 10.707 8.07027 6.29622C7.37838 5.5827 6.84648 5.06378 6.76432 5.02919C6.58702 4.95568 2.17189 4.9427 2.03351 5.01622C1.98162 5.04649 1.95135 5.10703 1.95135 5.18919C1.95135 5.2973 2.31027 5.67784 4.48108 7.89622C5.87351 9.31892 7.01081 10.4908 7.01081 10.5081C7.01081 10.5254 6.46162 11.0703 5.79135 11.7232C3.34378 14.093 1.64865 15.7578 1.62702 15.8184C1.55784 16 1.58811 16 4.17405 16C6.10703 15.9957 6.66486 15.9827 6.7427 15.9395Z"/></g></svg>
